<?xml version="1.0" encoding="UTF-8" standalone="no"?>
<!DOCTYPE svg PUBLIC "-//W3C//DTD SVG 1.1//EN" "http://www.w3.org/Graphics/SVG/1.1/DTD/svg11.dtd">
<!-- Created with Vectornator (http://vectornator.io/) -->
<svg height="100%" stroke-miterlimit="10" style="fill-rule:nonzero;clip-rule:evenodd;stroke-linecap:round;stroke-linejoin:round;" version="1.1" viewBox="0 0 1024 1024" width="100%" xml:space="preserve" xmlns="http://www.w3.org/2000/svg" xmlns:vectornator="http://vectornator.io" xmlns:xlink="http://www.w3.org/1999/xlink">
<defs/>
<g id="Layer-1" vectornator:layerName="Layer 1">
<g opacity="1" vectornator:layerName="Group 1">
<path d="M144.539 865.814L144.539 347.224L282.021 347.224L282.021 865.814L144.539 865.814ZM144.539 266.352L144.539 143.023L282.021 143.023L282.021 266.352L144.539 266.352Z" fill="#ffffff" fill-rule="nonzero" opacity="1" stroke="none"/>
<path d="M660.096 880.977C590.008 880.977 538.452 854.357 505.429 801.116L503.407 801.116L503.407 865.814L370.98 865.814L370.98 143.023L508.462 143.023L508.462 409.899L511.495 409.899C544.517 358.681 592.703 333.071 656.053 333.071C721.424 333.071 775.002 358.512 816.785 409.394C858.569 460.276 879.461 526.153 879.461 607.024C879.461 690.592 859.243 757.142 818.807 806.676C778.371 856.21 725.468 880.977 660.096 880.977ZM629.769 765.735C664.814 765.735 691.94 751.919 711.147 724.288C730.354 696.657 739.957 657.569 739.957 607.024C739.957 557.153 730.017 517.56 710.136 488.244C690.255 458.928 661.781 444.27 624.715 444.27C545.191 444.27 505.429 499.532 505.429 610.057C505.429 657.906 516.549 695.815 538.789 723.783C561.028 751.751 591.355 765.735 629.769 765.735Z" fill="#ffffff" fill-rule="nonzero" opacity="1" stroke="none"/>
</g>
</g>
</svg>
