<?xml version="1.0" encoding="UTF-8" standalone="no"?>
<!DOCTYPE svg PUBLIC "-//W3C//DTD SVG 1.1//EN" "http://www.w3.org/Graphics/SVG/1.1/DTD/svg11.dtd">
<!-- Created with Vectornator (http://vectornator.io/) -->
<svg height="100%" stroke-miterlimit="10" style="fill-rule:nonzero;clip-rule:evenodd;stroke-linecap:round;stroke-linejoin:round;" version="1.1" viewBox="0 0 1024 1024" width="100%" xml:space="preserve" xmlns="http://www.w3.org/2000/svg" xmlns:vectornator="http://vectornator.io" xmlns:xlink="http://www.w3.org/1999/xlink">
<defs/>
<g id="レイヤー-1" vectornator:layerName="レイヤー 1">
<g opacity="1" vectornator:layerName="g">
<path d="M512 1009.69C237.627 1009.69 14.3078 786.373 14.3078 512C14.3078 237.627 237.627 14.3078 512 14.3078C786.373 14.3078 1009.69 237.627 1009.69 512C1009.69 786.373 786.373 1009.69 512 1009.69ZM512 68.0478C267.184 68.0478 68.0478 267.184 68.0478 512C68.0478 756.816 267.184 955.952 512 955.952C756.816 955.952 955.952 756.816 955.952 512C955.952 267.184 756.816 68.0478 512 68.0478Z" fill="#fdc842" fill-rule="nonzero" opacity="1" stroke="none" vectornator:layerName="path"/>
<path d="M468.411 427.807L597.984 567.531C603.358 572.905 606.642 580.071 606.642 587.535L594.998 864.594C594.7 886.389 609.031 903.705 629.631 896.54C752.039 853.846 826.976 786.373 863.997 698.299C869.371 685.759 867.878 671.429 858.623 661.576L745.769 541.258C737.111 532.302 732.334 520.36 732.334 507.82L731.438 440.944C731.438 423.628 745.47 409.894 762.787 409.894L853.249 411.088C895.942 411.088 899.525 395.265 893.255 377.949C851.159 260.915 775.027 178.215 659.188 134.626C646.051 129.55 631.721 138.806 631.124 152.838L623.66 270.767C623.063 283.605 612.613 293.457 600.074 293.457L536.78 293.159C520.061 293.159 505.73 285.098 498.864 278.231L370.783 150.151C363.021 142.687 351.676 140.298 341.823 144.777C239.12 191.65 168.661 267.483 127.46 374.664C121.191 391.384 134.626 408.998 152.539 408.998L428.106 410.79C443.034 411.387 457.663 417.358 468.411 427.807ZM558.873 354.064C576.488 337.046 618.584 345.406 646.947 374.664C675.011 403.923 692.029 445.422 665.458 467.515C646.649 483.04 615.599 477.368 584.848 450.796C550.514 421.538 538.87 373.47 558.873 354.064Z" fill="#fdc842" fill-rule="nonzero" opacity="1" stroke="none" vectornator:layerName="path"/>
</g>
</g>
</svg>
